<svg width="35" height="48" viewBox="0 0 35 48" fill="none" xmlns="http://www.w3.org/2000/svg">
<path d="M14.1494 47.0849C13.4979 46.9679 12.8531 46.8272 12.2173 46.6641C11.245 37.1374 8.46443 27.7974 4.06341 19.2891C3.73821 18.6567 3.39612 18.0164 3.26671 17.3154C3.1373 16.6143 3.25095 15.83 3.73933 15.3123C4.47189 14.537 5.80087 14.636 6.67072 15.2549C7.54056 15.8727 8.05257 16.8675 8.50044 17.8364C11.64 24.6264 13.2345 32.06 13.8399 39.5173C14.0447 42.0357 14.1393 44.5598 14.1483 47.0849H14.1494ZM33.9421 16.6458C33.2208 15.8615 31.8896 15.9447 31.0119 16.5513C30.1342 17.1589 29.6086 18.1469 29.1506 19.1102C25.9267 25.8619 24.2421 33.2742 23.5433 40.7248C23.3396 42.8853 23.2192 45.0504 23.1618 47.2188C23.8539 47.1176 24.5347 46.9881 25.2088 46.8351C26.3858 37.6876 29.2294 28.7584 33.5697 20.6203C33.9039 19.9913 34.2527 19.3544 34.3911 18.6567C34.5295 17.9579 34.426 17.1713 33.9433 16.6458H33.9421ZM19.2301 13.549C18.0429 13.4736 16.7736 14.6799 16.9255 16.2497L17.7998 47.4923C18.2184 47.5114 18.6404 47.5204 19.0647 47.5204C19.4889 47.5204 19.8985 47.5114 20.3115 47.4923L21.2151 16.3296C21.4289 14.8532 20.3588 13.6199 19.2312 13.549H19.2301Z" fill="url(#paint0_linear_549_788)"/>
<path d="M7.12875 8.98497C6.70902 9.18189 6.19251 9.04123 5.92469 8.65751C5.48133 8.02059 5.03684 7.3848 4.59122 6.74901C4.30877 6.34616 4.39542 5.752 4.78252 5.4538C5.20675 5.12634 5.80428 5.17698 6.12049 5.59221C6.44458 6.0187 6.7439 6.46431 7.05223 6.90205C7.20977 7.12486 7.36619 7.34879 7.5181 7.57498C7.85006 8.06785 7.66439 8.7329 7.12875 8.98497Z" fill="white"/>
<path d="M3.9388 10.2252C4.1661 10.699 4.00069 11.2256 3.55957 11.499C3.16572 11.7432 2.6087 11.6397 2.32175 11.2481C1.95266 10.744 1.60045 10.2275 1.24148 9.71545C1.13908 9.56916 1.0333 9.42512 0.937648 9.27433C0.654075 8.82534 0.775606 8.24807 1.21222 7.95549C1.63308 7.67304 2.22385 7.77094 2.52206 8.18842C2.98455 8.83434 3.43579 9.48814 3.89041 10.1397C3.91404 10.1746 3.93317 10.2128 3.93992 10.2263L3.9388 10.2252Z" fill="white"/>
<path d="M5.74968 8.94246C5.97812 9.42634 5.82395 9.96085 5.41435 10.2017C4.95523 10.4717 4.41171 10.3626 4.11351 9.93835C3.66902 9.30819 3.22453 8.67802 2.78454 8.04673C2.48071 7.61012 2.57411 7.00922 2.98822 6.71101C3.43496 6.38918 4.02461 6.47583 4.34869 6.92707C4.79544 7.54935 5.23205 8.17839 5.67204 8.80631C5.70917 8.86032 5.7373 8.91996 5.75081 8.94359L5.74968 8.94246Z" fill="white"/>
<path d="M0.977784 9.8606C1.18146 10.1487 1.37164 10.4165 1.56181 10.6843C1.6057 10.7462 1.60007 10.789 1.53255 10.8351C1.31425 10.9814 1.10044 11.1367 0.882137 11.2841C0.616569 11.463 0.289108 11.409 0.103435 11.1603C-0.0631083 10.9364 -0.0282239 10.5943 0.205836 10.4097C0.448899 10.2184 0.709965 10.0496 0.977784 9.8606Z" fill="white"/>
<path d="M6.70264 5.84682C6.96821 5.66565 7.22814 5.4721 7.50497 5.30668C7.73452 5.16827 8.04398 5.26167 8.2049 5.4856C8.35569 5.69603 8.3343 6.02574 8.13063 6.19228C7.89882 6.38133 7.64563 6.54675 7.39807 6.71667C7.37218 6.73467 7.29679 6.72905 7.28216 6.70767C7.09199 6.44547 6.90744 6.17878 6.72289 5.91321C6.71276 5.89858 6.71164 5.87833 6.70264 5.8457V5.84682Z" fill="white"/>
<path d="M27.9331 13.1475C27.6124 12.9641 27.4673 12.5646 27.5944 12.2136C27.8049 11.6329 28.0153 11.0523 28.2246 10.4705C28.3574 10.1014 28.7839 9.88532 29.1552 10.0001C29.5626 10.1261 29.8045 10.538 29.6785 10.9341C29.5502 11.3403 29.3971 11.7398 29.2531 12.1415C29.18 12.3463 29.1068 12.55 29.0292 12.7537C28.8604 13.1959 28.3428 13.3805 27.9331 13.1464V13.1475Z" fill="white"/>
<path d="M25.6633 11.6396C25.4597 12.0042 25.0411 12.1381 24.6607 11.9761C24.3209 11.8321 24.1329 11.4225 24.2567 11.0556C24.4154 10.5841 24.5898 10.1171 24.7586 9.649C24.807 9.5151 24.852 9.38006 24.9072 9.2484C25.0692 8.85793 25.5013 8.67225 25.8918 8.82191C26.2676 8.96595 26.4758 9.39582 26.3408 9.78067C26.1326 10.3782 25.9132 10.9712 25.6982 11.5665C25.687 11.598 25.6701 11.6273 25.6645 11.6385L25.6633 11.6396Z" fill="white"/>
<path d="M27.3286 12.2295C27.1182 12.5997 26.6996 12.7449 26.3553 12.5884C25.9693 12.414 25.7904 12.01 25.9299 11.6207C26.1358 11.0423 26.3429 10.465 26.5522 9.88773C26.6962 9.48938 27.1306 9.27558 27.5154 9.40724C27.9296 9.55015 28.1434 9.97438 27.9993 10.3919C27.8001 10.968 27.5897 11.5408 27.3838 12.1147C27.3658 12.1642 27.3399 12.2092 27.3309 12.2283L27.3286 12.2295Z" fill="white"/>
<path d="M24.5428 9.54564C24.4494 9.81009 24.3616 10.0565 24.275 10.303C24.2547 10.3592 24.2244 10.3761 24.1636 10.3536C23.9678 10.2782 23.7686 10.2107 23.5728 10.1364C23.3342 10.0453 23.2195 9.80784 23.296 9.57265C23.3646 9.3611 23.6043 9.22719 23.8316 9.29471C24.0679 9.36447 24.2975 9.45787 24.5428 9.54564Z" fill="white"/>
<path d="M29.781 11.4307C30.0207 11.5207 30.266 11.6017 30.5012 11.7052C30.6958 11.7919 30.778 12.0361 30.706 12.2431C30.6385 12.4378 30.4134 12.5751 30.212 12.5188C29.9824 12.4547 29.7585 12.3658 29.5345 12.2825C29.5109 12.2735 29.4805 12.2229 29.4873 12.2026C29.5706 11.9584 29.6595 11.7165 29.7472 11.4746C29.7517 11.461 29.7652 11.452 29.7821 11.4307H29.781Z" fill="white"/>
<path d="M12.9367 8.09819C15.0533 5.98602 17.1486 3.89635 19.2406 1.81006C20.61 3.31907 20.502 5.96689 18.9637 7.62106C17.3681 9.33713 14.7461 9.54306 12.9355 8.09819H12.9367Z" fill="white"/>
<path d="M18.4187 0.973045C16.3099 3.08409 14.2293 5.16701 12.1475 7.24992C10.7431 5.94571 10.8163 3.17862 12.323 1.47943C13.8726 -0.269277 16.6678 -0.505588 18.4187 0.973045Z" fill="white"/>
<path d="M18.8409 1.32861C18.7756 1.73934 13.1312 7.47271 12.5212 7.74615C12.5134 7.3433 18.2467 1.52104 18.8409 1.32861Z" fill="white"/>
<defs>
<linearGradient id="paint0_linear_549_788" x1="18.8047" y1="13.163" x2="19.0309" y2="47.7567" gradientUnits="userSpaceOnUse">
<stop stop-color="#EB4589"/>
<stop offset="1" stop-color="#863EF6"/>
</linearGradient>
</defs>
</svg>
